<svg xmlns="http://www.w3.org/2000/svg" width="251.543" height="328.242" viewBox="0 0 251.543 328.242">
    <defs>
        <style>
            .cls-1{fill:#6d34f3}
        </style>
    </defs>
    <g id="그룹_4" transform="translate(-100.957 -594.517)">
        <g id="그룹_1">
            <path id="패스_1" d="M100.957 595.1h6.727l2.646 16.234c.493 3.5 1.031 7 1.524 10.583h.18c.672-3.587 1.39-7.13 2.108-10.583L118 595.1h5.695l3.812 16.234c.718 3.408 1.391 7 2.108 10.583h.224c.494-3.587.987-7.13 1.48-10.583l2.646-16.234h6.278l-6.143 33.23h-8.252l-3.722-16.413c-.538-2.6-1.032-5.157-1.435-7.713h-.18c-.448 2.556-.9 5.112-1.435 7.713l-3.632 16.413h-8.117z" class="cls-1"/>
            <path id="패스_2" d="M145.218 595.1h20.36v5.561h-13.723v7.668h11.66v5.561h-11.66v8.879h14.216v5.561h-20.853z" class="cls-1"/>
            <path id="패스_3" d="M182.976 595.1h10.9c7.354 0 13.005 2.6 13.005 10.449 0 7.579-5.695 10.987-12.826 10.987h-4.439v11.794h-6.638zm10.624 16.189c4.574 0 6.771-1.928 6.771-5.74 0-3.857-2.421-5.157-7-5.157h-3.767v10.9z" class="cls-1"/>
            <path id="패스_4" d="M212.887 595.1h6.637v33.23h-6.637z" class="cls-1"/>
            <path id="패스_5" d="M226.026 611.872c0-10.942 7.041-17.355 15.427-17.355a13.536 13.536 0 0 1 9.731 4.26l-3.453 4.216a8.74 8.74 0 0 0-6.144-2.781c-5.022 0-8.789 4.306-8.789 11.436 0 7.22 3.408 11.57 8.655 11.57a9.151 9.151 0 0 0 6.861-3.274l3.5 4.126a13.429 13.429 0 0 1-10.583 4.888c-8.388 0-15.205-6.009-15.205-17.086z" class="cls-1"/>
            <path id="패스_6" d="M257.148 595.1h6.637v14.44h.135l10.987-14.44h7.31l-10.135 13.1 11.928 20.13h-7.264l-8.611-14.93-4.35 5.6v9.328h-6.637z" class="cls-1"/>
        </g>
        <g id="그룹_2">
            <path id="패스_7" d="M121.455 676.428h-7.907v7.083h9.169v1.8h-20.5v-1.8h9.245v-7.083h-8.009v-12.722h18zm-2.06-1.828v-9.091h-13.882v9.091z" class="cls-1"/>
            <path id="패스_8" d="M133.507 673.673h-6.078v-10.122h8.525v1.777h-6.516v6.619h4.146a12.906 12.906 0 0 0 3.941-.566v1.674a11.57 11.57 0 0 1-4.018.618zm-2.266 8.576v2.678h15.529v1.673h-17.59v-6.026h15.247V677.9H129.18v-1.7h17.333v6.052zM135 669.294v-1.777h4.43v-4.094h1.983v11h-1.983v-5.125zm9.5 5.254v-11.254h2.009v11.254z" class="cls-1"/>
            <path id="패스_9" d="M102.217 717.308v-1.828h20.5v1.828h-4.636v6.078h-2.034v-6.078h-7.083v6.078h-2.034v-6.078zm3.3-13.237h13.882v-3.786h2.06v11.641h-18v-11.641h2.06zm13.882 6.052v-4.275h-13.886v4.275z" class="cls-1"/>
            <path id="패스_10" d="M138.04 721.429h-10.25v-20.99h10.816v1.8h-8.782v7.7h8.5v1.8h-8.5v7.933h7.263c2.962 0 5.511-.464 6.9-1.726v-17.919h2.086v23.024h-2.086v-3.373c-1.131 1.133-3.372 1.751-5.947 1.751z" class="cls-1"/>
            <path id="패스_11" d="M152.307 700.285H164v1.8h-4.816v2.815a6.39 6.39 0 0 0 5.228 6.593v1.828a8.773 8.773 0 0 1-6.206-4.378 8.973 8.973 0 0 1-6.284 4.687v-1.83c2.858-.644 5.2-2.936 5.2-6.9v-2.807h-4.816zm19.006 22.9h-17.564v-7.546h2.086v5.761h15.478zm-.437-7.108h-2.061v-8.679h-5.176v-1.777h5.176v-5.589h2.061z" class="cls-1"/>
            <path id="패스_12" d="M176.257 713.806V712h20.758v1.8h-9.091v4.558h-2.06V713.8zm19.187-5h-17.616v-8.525h17.616zm-15.555 7.854v4.74h16.019v1.777h-18.08v-6.516zm13.495-9.632v-4.97h-13.495v4.97z" class="cls-1"/>
            <path id="패스_13" d="M210.716 705.307v-3.065h-8.963v-1.8h11.023v4.658c0 8.808-3.5 14.5-11.177 16.534V719.7c6.155-1.8 9.117-6.77 9.117-14.393zm8.962-5.28v9.684h3.76v1.8h-3.76v11.563h-2.06v-23.05z" class="cls-1"/>
            <path id="패스_14" d="M117.489 748.222h4.4v1.8h-8.345v6.954h9.169v1.8h-20.5v-1.8h9.245v-6.954h-8.447v-1.8h3.58v-9.246h-3.142v-1.8h18v1.8h-3.142v3.94a14.551 14.551 0 0 1-.818 5.306zm-8.834-9.246v9.246h6.825a14.337 14.337 0 0 0 .773-5.1v-4.146z" class="cls-1"/>
            <path id="패스_15" d="M146.178 738.976h-15.942v4.507H145.9v1.777h-15.664v4.532h16.251v1.778h-8.215v5.408h9.168v1.8h-20.5v-1.8h9.246v-5.408h-8.01v-14.4h18z" class="cls-1"/>
            <path id="패스_16" d="M151.663 758.781v-1.8h20.5v1.8zm17.178-13.65v-6.155h-16.07v-1.8H170.9v7.7a43.384 43.384 0 0 1-.772 8.242h-2.035a42.667 42.667 0 0 0 .748-7.987z" class="cls-1"/>
            <path id="패스_17" d="M183.34 758.188h-6.233v-11.512h5.975v-7.7h-5.975v-1.8h8.01v11.306h-6v7.932h4.583a7.111 7.111 0 0 0 4.765-1.39V736.89h2.009v9.374h3.373v-9.5h2.009v23.05h-2.009v-11.747h-3.373v11.486h-2.009v-2.833c-1.03 1.005-2.782 1.468-5.125 1.468z" class="cls-1"/>
            <path id="패스_18" d="M203.968 756.411v-17.435h-2.292v-1.8H214.6v1.8h-2.369V749.1a37.142 37.142 0 0 1-.566 7.314 13.287 13.287 0 0 0 4.584-.644v1.7a11.541 11.541 0 0 1-4.739.721h-10.117v-1.777zm6.233-6.206v-11.229H206v17.435h3.708a33.287 33.287 0 0 0 .492-6.206zm3.863-2.19v-1.777h4.1v-9.477h2.086v23.05h-2.086v-11.8z" class="cls-1"/>
            <path id="패스_19" d="M102.217 795.514v-1.8h20.5v1.8zm10.224-14.86c-1.442 3.039-4.636 5.795-9.838 6.8V785.6c5.305-1.185 8.782-4.636 8.782-9.684v-2.163h2.086v2.163c0 5.048 3.606 8.5 8.808 9.684v1.854c-5.151-1.054-8.396-3.761-9.838-6.8z" class="cls-1"/>
            <path id="패스_20" d="M126.94 791.368v-1.829h20.5v1.829h-4.64v5.485h-2.03v-5.485h-7.083v5.485h-2.034v-5.485zm19.238-15.787h-15.942v3.476H145.9v1.8h-15.664v3.554h16.225v1.829h-18.285v-12.488h18z" class="cls-1"/>
            <path id="패스_21" d="M162.763 794.922h-10.25v-21.015h10.894v1.8h-8.859v17.436h8.576a8.326 8.326 0 0 0 5.588-1.726v-17.922h2.088v23.024h-2.086v-3.374c-1.135 1.155-3.376 1.777-5.951 1.777z" class="cls-1"/>
            <path id="패스_22" d="M177.107 780.448a5.979 5.979 0 0 1 2.189-4.79c1.7-1.339 4.224-2.009 7.34-2.009 3.142 0 5.666.67 7.34 2.009a5.976 5.976 0 0 1 2.189 4.79 5.82 5.82 0 0 1-2.189 4.765 10.7 10.7 0 0 1-6.258 2.034v6.464h9.168v1.8h-20.5v-1.8h9.246v-6.464a10.916 10.916 0 0 1-6.336-2.034 5.823 5.823 0 0 1-2.189-4.765zm2.061 0a4.231 4.231 0 0 0 1.6 3.4c1.288 1.081 3.348 1.6 5.872 1.6s4.61-.515 5.9-1.6a4.137 4.137 0 0 0 1.571-3.4 4.2 4.2 0 0 0-1.571-3.4c-1.288-1.082-3.374-1.571-5.9-1.571s-4.584.489-5.872 1.571a4.3 4.3 0 0 0-1.6 3.4z" class="cls-1"/>
        </g>
        <g id="그룹_3">
            <path id="패스_23" d="M103.815 843.2v-3.453h17.192v3.453h-6.612v2.975c0 5.694 3.085 8.3 7.236 9.257v3.527c-4-.7-7.42-2.792-9.147-5.62a13.509 13.509 0 0 1-9.257 6.024v-3.527c4.225-.918 7.2-3.893 7.2-9.661V843.2zm27.514 29.608h-25.493v-11.316h4v7.862h21.489zm-.588-10.139h-4v-12.123h-6.869v-3.417h6.869v-7.787h4z" class="cls-1"/>
            <path id="패스_24" d="M137.977 859.619v-3.453h30.012v3.453h-12.637v6.171h-3.967v-6.171zm27.845-19.873v12.673h-25.641v-12.673zm-21.674 23.363v6.245h22.261v3.453h-26.228v-9.7zm0-14.033h17.67v-5.951h-17.67z" class="cls-1"/>
            <path id="패스_25" d="M186.539 847.129v-3.673h-12.2v-3.527h16.163v6.723c0 12.71-4.849 21.122-16.347 24.061v-3.784c8.563-2.461 12.384-9.367 12.384-19.8zm13.849-7.787v13.591h5.212v3.49h-5.216v16.237h-4v-33.318z" class="cls-1"/>
            <path id="패스_26" d="M224.227 847.056v-5.731h-14v-.808h14.878v6.5c0 12.306-5.4 19.947-15.1 22.665v-.771c9.153-2.68 14.222-10.027 14.222-21.855zm10.69 7.163h5.62v.772h-5.62v17.081h-.845v-32.179h.845z" class="cls-1"/>
            <path id="패스_27" d="M119.758 902.628h-16.127v-.771H108v-11.424h-3.931v-.772h17.963v.772H118v5.84a18.763 18.763 0 0 1-.809 5.584h2.572c3.82 0 7.2-.7 9.441-2.5V889.22h.881v14.915h-.885v-3.894c-2.132 1.759-5.548 2.387-9.442 2.387zm-12.269 18.331h23.032v.771h-23.914v-7.273H129.2V908.8h-22.593v-.772h23.473v7.237h-22.591zm1.359-19.1h7.457a17.914 17.914 0 0 0 .845-5.547v-5.877h-8.3z" class="cls-1"/>
            <path id="패스_28" d="M139.85 898.624a7.825 7.825 0 0 1 2.9-6.281c2.241-1.91 5.731-2.866 10.249-2.866s8.008.956 10.249 2.866a8.249 8.249 0 0 1 0 12.563 9.547 9.547 0 0 1-3.416 1.873v12.233h7.42v.808h-28.504v-.808h7.6v-12.159a10.25 10.25 0 0 1-3.6-1.947 7.827 7.827 0 0 1-2.898-6.282zm.845 0a7.175 7.175 0 0 0 2.682 5.694C145.471 906.081 148.74 907 153 907s7.531-.919 9.625-2.682a7.386 7.386 0 0 0 0-11.387c-2.094-1.764-5.363-2.682-9.625-2.682s-7.53.918-9.624 2.682a7.174 7.174 0 0 0-2.676 5.693zm18.294 8.413a21.219 21.219 0 0 1-5.988.734 22.626 22.626 0 0 1-5.767-.661v11.9h11.755z" class="cls-1"/>
            <path id="패스_29" d="M181.91 892.563v-4.371h.808v4.371h8.67v.808h-18.147v-.808zm-7.567 10.873a4.974 4.974 0 0 1 1.8-3.893 9.2 9.2 0 0 1 6.135-2.021 9.068 9.068 0 0 1 6.134 2.021 5.006 5.006 0 0 1 0 7.751 9.073 9.073 0 0 1-6.134 2.02 9.209 9.209 0 0 1-6.135-2.02 4.957 4.957 0 0 1-1.8-3.858zm.882 0a4.2 4.2 0 0 0 1.469 3.233 8.739 8.739 0 0 0 5.584 1.874 8.591 8.591 0 0 0 5.583-1.874 4.262 4.262 0 0 0 0-6.5 8.6 8.6 0 0 0-5.583-1.873 8.744 8.744 0 0 0-5.584 1.873 4.224 4.224 0 0 0-1.469 3.267zm2.2 17.3h22.848v.809h-23.73v-8.523h.882zm22.224-21.232h5.4v.771h-5.4v12.159h-.845V889.22h.845z" class="cls-1"/>
            <path id="패스_30" d="M234.623 905.53h-14.951v-16.457h16.273v3.49h-12.269v9.551h11.975c3.012 0 5.069-.441 6.5-1.469v-11.976h4v7.494H251v3.49h-4.849v8.008h-4v-3.784c-1.394 1.139-3.782 1.653-7.528 1.653zm-13.482 10.139a5.713 5.713 0 0 1 2.461-4.7c2.388-1.69 6.135-2.388 10.47-2.388 4.3 0 8.081.7 10.432 2.388a5.758 5.758 0 0 1 0 9.441c-2.351 1.69-6.135 2.351-10.432 2.351-4.335 0-8.082-.661-10.47-2.351a5.73 5.73 0 0 1-2.461-4.741zm4 0a2.7 2.7 0 0 0 1.359 2.278c1.47.991 4.151 1.395 7.568 1.395 3.379 0 6.061-.4 7.6-1.395a2.661 2.661 0 0 0 0-4.555c-1.543-.956-4.225-1.4-7.6-1.4-3.417 0-6.1.44-7.568 1.4a2.7 2.7 0 0 0-1.355 2.277z" class="cls-1"/>
            <path id="패스_31" d="M265.552 888.89v5.694c0 5.767 3.2 8.706 7.457 10.028v3.526c-4.188-.918-7.678-3.232-9.4-6.024-1.58 2.865-5.106 5.4-9.441 6.429v-3.564c4.372-1.359 7.42-4.775 7.42-10.4v-5.689zm17.338 33.244H257.4V910.82h4v7.861h21.49zM282.3 912h-4v-23.331h4z" class="cls-1"/>
            <path id="패스_32" d="M290.9 904.355c0-7.2.771-11.865 2.938-13.922a4.493 4.493 0 0 1 3.27-1.213 4.614 4.614 0 0 1 3.269 1.213c2.131 2.057 2.939 6.722 2.939 13.922s-.808 11.865-2.939 13.922a4.591 4.591 0 0 1-3.269 1.176 4.474 4.474 0 0 1-3.27-1.176c-2.169-2.057-2.938-6.722-2.938-13.922zm.845 0c0 6.8.661 11.277 2.644 13.261a3.74 3.74 0 0 0 2.719 1.1 3.8 3.8 0 0 0 2.718-1.1c1.947-1.984 2.608-6.465 2.608-13.261s-.661-11.278-2.608-13.224a3.654 3.654 0 0 0-2.718-1.1 3.6 3.6 0 0 0-2.719 1.1c-1.989 1.946-2.646 6.428-2.646 13.224zm12.71-.294v-.808h4.845v-13.776h.882v31.482h-.882v-16.9zm11.9 17.339v-32.18h.882v32.18z" class="cls-1"/>
            <path id="패스_33" d="M336.484 898.661v-8.008h-9.735v-.808h10.616v8.779c0 11.2-4.114 18.11-11.093 20.388v-.771c6.391-2.241 10.212-9 10.212-19.58zm2.167 5.18v-.772h5.549v-13.592h.845v31.482h-.845v-17.118zm12.967 17.559v-32.18h.882v32.18z" class="cls-1"/>
        </g>
    </g>
</svg>
